<?xml version="1.0" encoding="UTF-8" standalone="no"?>
<svg
   xmlns:dc="http://purl.org/dc/elements/1.1/"
   xmlns:cc="http://creativecommons.org/ns#"
   xmlns:rdf="http://www.w3.org/1999/02/22-rdf-syntax-ns#"
   xmlns:svg="http://www.w3.org/2000/svg"
   xmlns="http://www.w3.org/2000/svg"
   viewBox="0 0 720 720"
   height="720"
   width="720"
   xml:space="preserve"
   id="svg2"
   version="1.1"><metadata
     id="metadata8"><rdf:RDF><cc:Work
         rdf:about=""><dc:format>image/svg+xml</dc:format><dc:type
           rdf:resource="http://purl.org/dc/dcmitype/StillImage" /></cc:Work></rdf:RDF></metadata><defs
     id="defs6" /><g
     transform="matrix(1.3333333,0,0,-1.3333333,0,719.99998)"
     id="g10"><g
       transform="scale(0.1)"
       id="g12"><path
         id="path14"
         style="fill:#ffffff;fill-opacity:1;fill-rule:nonzero;stroke:none"
         d="m 891.211,1518.84 c 13.594,8.79 14.766,10.31 5.977,23.87 l -25.079,38.78 c -17.265,26.64 -24.375,29.93 -52.304,19.03 l -13.711,-5.31 c -6.836,0.58 -14.453,13.51 -11.875,19.57 16.758,9.37 35.703,20.93 54.844,33.32 18.632,12.07 36.953,24.61 51.406,35.31 6.484,-0.04 15.156,-12.35 12.851,-18.79 l -10.429,-10.35 c -20.938,-20.67 -21.368,-28.83 -4.102,-55.51 l 25.078,-38.75 c 8.789,-13.63 10.625,-13.2 24.219,-4.34 l 68.004,43.99 c 46.84,30.27 48.91,35.94 37.27,60.55 l -9.57,20.23 c 0.78,5.47 12.34,12.97 17.62,11.44 19.22,-31.87 34.68,-56.87 50.31,-81.05 15,-23.2 31.8,-48.05 52.34,-77.58 -0.39,-6.01 -12.03,-13.47 -17.61,-11.44 l -13.29,15 c -18.2,20.35 -23.67,21.13 -70.5,-9.18 L 875.352,1406.46 c -46.836,-30.36 -49.414,-36.29 -38.243,-61.22 l 5,-11.01 c -0.117,-6.56 -12.734,-14.65 -18.281,-10.47 -13.008,22.38 -28.828,47.85 -44.453,71.99 l -68.398,105.74 c -20.86,32.23 -39.922,60.67 -45.508,67 8.594,5.58 44.844,29.02 77.929,51.87 6.836,1.56 14.493,-9.18 14.375,-17.89 -17.07,-18.83 -26.523,-30.7 -29.804,-39.92 -5.078,-15.43 -1.328,-34.49 15.312,-60.16 l 25.391,-39.26 c 10.742,-16.6 11.758,-15.97 31.406,-3.24 l 91.133,58.95" /><path
         id="path16"
         style="fill:#ffffff;fill-opacity:1;fill-rule:nonzero;stroke:none"
         d="m 828.828,1924.97 c 26.172,10.55 43.086,19.96 49.063,30.78 6.562,11.06 6.953,22.89 -9.375,63.52 -20.43,50.7 -28.36,65.62 -106.211,72.46 -7.383,2.19 -10.313,15.9 -5.196,22.5 30.079,8.9 81.719,14.14 99.883,12.38 10.742,-29.96 31.758,-83.63 50.117,-129.3 l 30.079,-74.64 c 10.312,-25.63 22.109,-53.25 37.109,-87.35 -1.328,-6.36 -13.672,-12.61 -18.828,-9.49 l -11.289,20.04 c -13.438,23.71 -19.258,25.23 -71.055,4.41 l -207.187,-83.43 c -51.797,-20.9 -55.43,-26.25 -48.711,-52.62 l 4.296,-17.11 c -1.132,-6.88 -13.906,-12.07 -19.921,-6.72 -10.547,29.49 -21.211,57.5 -31.993,84.26 -10.781,26.76 -22.539,54.41 -34.843,81.72 1.523,5.82 14.336,10.97 19.453,7.85 l 8.047,-13.6 c 13.984,-23.47 19.804,-25 71.64,-4.17 l 194.922,78.51" /><path
         id="path18"
         style="fill:#ffffff;fill-opacity:1;fill-rule:nonzero;stroke:none"
         d="m 428.086,2321.92 c 11.914,-72.81 86.406,-100.74 185.234,-84.57 72.266,11.84 184.102,56.29 168.321,152.78 -12.696,77.58 -93.399,95.35 -189.336,79.65 -101.211,-16.57 -176.25,-74.42 -164.219,-147.86 z m 141.055,241.33 c 129.062,21.13 220.742,-52.62 241.562,-179.92 19.492,-118.98 -44.531,-218.2 -168.242,-238.48 -117.227,-19.18 -222.148,53.64 -242.422,177.35 -20.117,123.16 48.867,221.36 169.102,241.05" /><path
         id="path20"
         style="fill:#ffffff;fill-opacity:1;fill-rule:nonzero;stroke:none"
         d="m 552.852,2761.77 c 20.976,-1.1 22.851,0.62 24.648,35.97 1.094,21.57 -3.633,34.42 -14.453,46.37 -9.649,10.7 -28.242,23.05 -63.594,24.85 -53.906,2.73 -90.234,-27.23 -92.617,-73.95 -1.289,-24.53 0.508,-25.82 29.219,-27.3 z m -80.235,-78.21 c -59.883,3.05 -66.562,2.19 -71.406,-22.77 l -3.242,-16.05 c -3.281,-5.82 -18.281,-5.08 -20.899,2.26 -0.703,45.08 -0.742,91.92 2.188,148.83 2.578,50.9 12.578,94.22 27.539,116.29 22.148,33.71 53.008,50.12 91.328,48.16 53.281,-2.69 74.219,-39.8 86.602,-68.04 2.695,-6.14 6.289,-6.33 13.007,-3.68 82.266,35.43 128.438,57.7 154.454,85.2 13.398,14.96 17.773,30.31 18.828,39.3 3.281,5.19 12.226,4.76 15.703,1.56 3.672,-9.77 3.906,-28.99 2.969,-47.58 -2.813,-55.12 -24.375,-88.79 -68.829,-112.97 -32.695,-17.54 -62.734,-29.8 -95.195,-41.99 -16.523,-6.37 -21.797,-15.7 -22.578,-30.66 -1.055,-20.98 0.078,-22.23 12.07,-22.86 l 73.633,-3.75 c 55.117,-2.81 59.492,0.59 65.664,27.31 l 3.789,16.01 c 3.242,4.03 17.578,3.29 20.977,-1.09 -2.813,-31.64 -4.844,-59.18 -6.289,-87.93 -1.524,-29.96 -2.227,-56.33 -2.617,-87.54 -3.868,-4.61 -18.243,-3.86 -21.016,1.06 l -2.149,16.33 c -3.398,27.22 -7.421,31.01 -62.539,33.82 l -211.992,10.78" /><path
         id="path22"
         style="fill:#ffffff;fill-opacity:1;fill-rule:nonzero;stroke:none"
         d="m 751.719,3208.33 c 54.922,-13.05 59.804,-10.55 70.859,15.23 l 6.797,15.63 c 4.648,3.83 17.93,0.08 20.313,-5.35 -8.672,-31.25 -16.055,-59.73 -22.579,-87.19 -6.679,-28.01 -13.046,-57.34 -19.375,-89.14 -4.609,-3.83 -18.046,-0.66 -20.429,4.84 l 0.976,17.07 c 1.719,27.93 -1.523,32.43 -56.406,45.47 l -214.766,51.1 c -54.882,13.04 -59.765,10.5 -70.859,-15.24 l -6.797,-15.62 c -4.609,-3.87 -18.047,-0.67 -20.39,4.84 8.632,31.25 16.171,60.31 22.812,88.36 6.563,27.42 12.891,56.76 19.219,88.48 4.609,3.82 18.047,0.66 20.469,-4.89 l -1.016,-17.03 c -1.719,-27.93 1.562,-32.42 56.406,-45.47 l 214.766,-51.09" /><path
         id="path24"
         style="fill:#ffffff;fill-opacity:1;fill-rule:nonzero;stroke:none"
         d="m 820.977,3483.64 c 29.882,-13.98 50,-22.03 65.976,-17.58 15.469,4.77 27.735,18.21 36.875,37.82 43.945,94.1 -24.844,165.31 -98.789,199.88 -97.93,45.74 -180.273,21.21 -226.25,-77.23 -6.875,-14.68 -8.945,-26.29 -6.172,-31.56 2.852,-5.31 12.93,-10.7 29.805,-18.59 z m -208.789,2.74 c -51.641,24.18 -62.54,27.89 -76.954,4.14 l -5.898,-9.81 c -5.234,-4.18 -21.055,3.21 -18.516,9.96 18.633,46.96 36.25,90.43 63.164,148.05 20.86,44.65 46.016,87.19 77.188,118.44 58.828,59.3 141.328,68.47 209.297,36.72 72.89,-34.07 115.39,-96.29 117.187,-173.36 1.25,-45.63 -12.539,-93.52 -38.711,-149.53 -11.953,-25.55 -27.929,-51.25 -37.07,-70.86 -12.187,-26.1 -24.609,-54.07 -37.969,-85.63 -5.312,-2.81 -18.359,3.28 -19.062,8.91 l 5.156,18.12 c 7.656,26.25 4.805,31.57 -45.234,54.96 l -192.578,89.89" /><path
         id="path26"
         style="fill:#ffffff;fill-opacity:1;fill-rule:nonzero;stroke:none"
         d="m 1031.52,3963.02 c 8.32,11.01 8.71,14.49 -6.68,20.08 l -48.199,16.83 c -25.664,8.83 -50,17.42 -63.321,20.7 6.914,-12.77 21.25,-35.58 37.891,-59.41 l 26.875,-39.1 c 9.687,-14.1 12.93,-12.77 21.954,-0.78 z m -13.32,-70.43 c -8.67,-11.53 -9.25,-13.32 -2.34,-23.05 l 42.19,-59.65 c 7.42,-10.15 10.9,-13.51 14.72,-16.4 2.89,-2.19 8.64,-0.47 21.18,11.09 l 13.24,12.58 c 5.54,0.35 17.26,-7.03 16.05,-13.67 -13.63,-16.02 -28.08,-35.16 -43.75,-54.93 -12.3,-16.28 -19.18,-28.39 -35.82,-50.46 -6.87,-3.05 -16.56,5 -17.85,11.25 l 8.32,14.02 c 7.27,12.62 10.63,25.08 -1.87,47.3 -13.05,22.62 -29.54,48.6 -54.262,87.58 l -84.336,131.33 c -21.875,33.83 -31.797,55.59 -46.758,64.65 12.07,26.99 1.992,62.42 2.695,63.4 4.727,6.21 9.297,7.26 17.93,3.75 16.758,-6.64 38.828,-14.3 81.914,-27.97 l 236.957,-76.6 c 36.36,-11.6 50.62,-15.63 66.87,-0.08 l 16.64,16.05 c 4.57,1.06 16.8,-6.68 16.41,-13.28 -18.32,-22.26 -38.32,-47.77 -57.11,-72.65 -18.13,-23.99 -31.72,-42.97 -47.42,-65.71 -6.8,-3.08 -17.62,3.56 -17.46,11.72 l 9.18,17.11 c 6.4,12.5 4.49,16.95 1.6,19.1 -3.36,2.54 -17.39,7.85 -39.46,15.51 l -50.97,18.13 c -9.46,3.43 -13.32,0.31 -25.98,-16.49 l -40.51,-53.63" /><path
         id="path28"
         style="fill:#ffffff;fill-opacity:1;fill-rule:nonzero;stroke:none"
         d="m 1562.34,4241.22 c -44.68,-32.42 -81.48,-39.92 -95.89,-41.48 -17,3.98 -48.68,34.37 -72.62,67.34 -1.21,8.75 9.61,17.34 17.38,14.84 32.62,-24.49 97.54,-45.54 138.79,-15.54 35.94,26.09 34.41,62.81 16.8,87.07 -28.52,39.29 -82.35,35.78 -122.03,29.18 -47.62,-7.89 -107.11,-6.64 -142,41.41 -40.31,54.48 -25.11,123.35 45.28,174.44 15.97,11.65 37.26,24.15 60.93,32.43 7.7,2.65 12.78,4.84 19.3,8.13 11.64,-7.86 35.51,-30.56 59.14,-63.06 1.8,-7.57 -10,-16.87 -17.85,-15.23 -26.21,18.79 -72.85,39.06 -107.77,13.68 -32.03,-23.29 -34.34,-56.8 -16.72,-81.1 16.25,-22.31 50.94,-28.24 84.33,-23.24 l 44.38,6.29 c 41.72,5.85 100.47,5.55 139.26,-47.82 43.36,-59.68 22.54,-134.1 -50.71,-187.34" /><path
         id="path30"
         style="fill:#ffffff;fill-opacity:1;fill-rule:nonzero;stroke:none"
         d="m 1684.18,4737.86 c -6.21,12.97 -7.5,15.7 -20.47,9.45 l -33.59,-16.01 c -39.57,-18.87 -40.59,-45.98 -37.93,-93.28 -5,-6.33 -15.78,-10.16 -22.39,-4.69 -6.48,42.81 -19.8,77.65 -26.09,100.63 1.37,2.65 3.59,5.04 6.29,6.33 2.73,1.28 5.66,2.02 8.63,1.48 7.07,-7.97 9.77,-9.34 50.9,10.31 l 201.52,96.21 c 35.75,17.07 43.64,21.52 43.05,35.19 1.68,2.12 3.01,3.45 6.29,5 3.24,1.57 8.05,1.18 9.92,0.08 3.36,-20.97 20.55,-66.67 36.37,-97.02 -0.39,-6.18 -14.49,-14.23 -19.26,-11.22 -25.78,30.28 -45.54,52.15 -86.17,32.7 l -32.46,-15.51 c -13.01,-6.21 -13.87,-8.59 -7.15,-22.7 l 114.06,-238.86 c 24.07,-50.35 29.38,-53.16 55.32,-44.77 l 22.96,7.62 c 5.36,-1.41 11.29,-13.91 9.03,-18.94 -35.71,-15.75 -63.05,-28.13 -87.42,-39.77 -25.98,-12.38 -53.91,-26.37 -91.29,-45.59 -5.9,1.17 -11.88,13.68 -9.07,18.95 l 23.05,14.34 c 23.13,14.37 24.02,20.77 -0.04,71.17 l -114.06,238.9" /><path
         id="path32"
         style="fill:#ffffff;fill-opacity:1;fill-rule:nonzero;stroke:none"
         d="m 2149.84,4719.27 c 13.32,3.67 15.71,6.17 6.96,19.92 l -27.89,42.74 c -14.93,22.65 -28.91,44.29 -37.5,55 -2.27,-14.3 -4.85,-41.1 -6.25,-70.08 l -2.58,-47.35 c -0.86,-17.03 2.46,-18 16.91,-14.02 z m -53.47,-47.66 c -13.87,-3.79 -15.43,-4.84 -15.9,-16.8 l -3.01,-72.92 c -0.27,-12.54 0.39,-17.31 1.68,-21.92 0.94,-3.51 6.49,-5.7 23.48,-4.14 l 18.16,1.88 c 4.61,-3.09 9.38,-16.1 4.38,-20.55 -20.55,-4.41 -43.64,-10.78 -68.13,-16.84 -19.65,-5.43 -32.42,-10.82 -59.06,-18.09 -7.31,1.73 -10.08,14.03 -7.31,19.77 l 15.2,6.02 c 13.36,5.54 23.59,13.36 27.27,38.59 3.47,25.82 6.32,56.45 10.5,102.35 l 13.28,155.39 c 3.32,40.11 8.79,63.36 2.47,79.69 25.93,13.98 39.6,48.16 40.74,48.47 7.54,2.07 11.76,0.12 16.44,-7.93 9.3,-15.47 22.11,-35 47.78,-72.07 l 140.89,-205.12 c 21.65,-31.33 30.47,-43.24 52.86,-40.82 l 22.93,2.54 c 4.25,-1.95 9.25,-15.47 5,-20.39 -28.13,-6.49 -59.46,-14.45 -89.54,-22.74 -28.9,-7.88 -51.32,-14.68 -77.61,-23.12 -7.31,1.72 -11.8,13.52 -6.68,19.93 l 17.65,7.96 c 12.74,5.94 13.91,10.63 12.89,14.11 -1.05,4.06 -8.9,16.83 -21.75,36.28 l -29.18,45.47 c -5.47,8.48 -10.43,8.36 -30.71,2.82 l -64.72,-17.82" /><path
         id="path34"
         style="fill:#ffffff;fill-opacity:1;fill-rule:nonzero;stroke:none"
         d="m 2472.3,4965.17 c -1.17,14.33 -1.44,17.38 -15.78,16.21 l -37.07,-3.05 c -43.67,-3.6 -54.29,-28.52 -68.63,-73.67 -6.91,-4.14 -18.36,-3.91 -22.62,3.59 9.22,42.31 9.18,79.61 11.49,103.29 2.22,2.02 5.11,3.43 8.08,3.67 3.01,0.23 6.06,-0.08 8.6,-1.73 3.83,-9.92 5.82,-12.14 51.29,-8.43 l 222.5,18.16 c 39.45,3.25 48.39,4.58 52.73,17.54 2.31,1.41 4.06,2.15 7.62,2.43 3.63,0.3 8.01,-1.72 9.33,-3.45 -4.29,-20.81 -4.53,-69.6 -0.54,-103.59 -2.58,-5.62 -18.67,-8.12 -22.03,-3.59 -13.29,37.42 -23.99,64.84 -68.79,61.21 l -35.9,-2.93 c -14.34,-1.17 -16.02,-3.12 -14.73,-18.67 l 21.53,-263.79 c 4.53,-55.58 8.51,-60.12 35.74,-61.52 l 24.18,-1.02 c 4.45,-3.24 5.62,-16.99 1.72,-20.94 -38.99,-1.95 -68.99,-3.83 -95.86,-6.01 -28.71,-2.34 -59.77,-5.47 -101.57,-10.12 -5.07,3.24 -6.21,16.99 -1.71,20.97 l 26.64,5.16 c 26.71,5.2 29.84,10.86 25.31,66.49 l -21.53,263.79" /><path
         id="path36"
         style="fill:#ffffff;fill-opacity:1;fill-rule:nonzero;stroke:none"
         d="m 2933.09,4852.79 c -1.96,-16.73 -1.45,-17.98 14.64,-19.85 l 41.1,-4.84 c 30.97,-3.67 38.59,-0.31 47.97,27.58 l 4.68,14.53 c 4.73,4.29 19.61,2.5 21.96,-3.25 -3.4,-18.9 -6.53,-40.27 -9.14,-62.92 -2.7,-22.66 -4.65,-44.15 -5.71,-63.36 -3.59,-5 -18.59,-3.83 -22.14,2.03 l -1.18,15.23 c -2.61,29.29 -9.18,34.92 -40.19,38.6 l -41.1,4.8 c -16.09,1.91 -16.75,1.37 -18.86,-16.53 l -8.32,-70.85 c -3.25,-27.42 -3.13,-46.76 2.81,-57.74 6.48,-11.64 17.27,-17.74 60.74,-22.89 51.84,-6.1 72.38,-6.72 113.05,56.8 5.51,6.01 20.15,1.83 21.68,-5.59 -6.02,-30.7 -26.02,-77.31 -36.29,-92.38 -31.41,4.92 -88.52,12.27 -137.38,18.01 l -77.46,9.1 c -28.64,3.36 -57.93,6.25 -102.74,10.31 -4.3,4.14 -2.62,18.44 2.5,20.86 l 28.48,0.86 c 27.34,1.01 31.33,4.14 37.77,58.99 l 26.17,222.26 c 6.37,54.22 3.25,58.2 -22.93,66.72 l -14.57,4.77 c -4.92,4.17 -2.73,17.81 3.64,20.69 27.89,-4.52 57.03,-8.55 85.62,-11.91 l 126.25,-14.88 c 38.2,-4.46 72.19,-7.89 80.08,-7.58 -0.47,-9.65 -1.33,-53.05 -3.13,-93.32 -3.12,-6.29 -16.95,-5.82 -22.3,0.23 -4.1,21.61 -10.35,40.48 -17.15,49.73 -9.92,12.66 -26.99,21.92 -56.13,25.39 l -47.7,5.59 c -19.68,2.31 -19.76,1.13 -22.42,-20.9 l -12.3,-104.29" /><path
         id="path38"
         style="fill:#ffffff;fill-opacity:1;fill-rule:nonzero;stroke:none"
         d="m 3523.2,4783.88 c 24.14,50.27 22.39,55.08 0.39,71.64 l -12.18,9.18 c -2.78,5.35 2.34,17.46 9.84,17.89 25.51,-13.55 52.27,-27.07 78.24,-39.49 26.45,-12.74 53.28,-24.89 79.73,-36.29 2.81,-5.31 -2.93,-17.23 -8.83,-18.4 l -13.98,4.06 c -26.45,7.34 -31.72,4.61 -55.86,-45.7 l -59.92,-124.96 c -30.4,-63.29 -56.76,-136.45 25.46,-175.9 69.22,-33.2 119.34,17.3 154.89,91.4 l 31.4,65.48 c 20.98,43.82 38.52,85.93 39.34,102.85 0.58,13.71 -9.77,22.61 -23.09,32.38 l -13.28,9.69 c -2.22,6.4 4.03,16.72 8.79,18.43 28.71,-15.12 49.57,-25.78 71.72,-36.41 20.04,-9.6 40.31,-18.67 61.41,-27.46 1.64,-4.8 -2.47,-16.13 -8.87,-18.39 l -10.78,2.5 c -15.63,3.51 -27.46,5.19 -37.74,-3.83 -12.69,-11.21 -34.57,-51.25 -55.62,-95.08 l -29.03,-60.58 c -24.37,-50.87 -51.56,-95.04 -97.14,-113.79 -35.98,-13.99 -81.92,-8.6 -125.79,12.42 -41.13,19.73 -74.76,43.83 -92.57,81.64 -17,36.76 -9.65,82.5 18.59,141.45 l 64.88,135.27" /><path
         id="path40"
         style="fill:#ffffff;fill-opacity:1;fill-rule:nonzero;stroke:none"
         d="m 4111.6,4164.23 c -24.72,-30.2 -48.63,-59.49 -60.27,-75.59 -7.81,-2.89 -25,2.62 -36.1,11.76 -0.5,0.35 3.52,36.6 3.75,81.41 l 1.33,220.66 c 0,55 0.67,87.03 -2.03,100.86 -6.09,-2.73 -12.58,-10.62 -26.6,-27.81 l -73.71,-90.16 c -30.78,-37.65 -57.42,-73.98 -62.62,-90.7 -3.79,-13.2 4.26,-25.16 14.85,-36.92 l 11.44,-12.5 c 0.66,-6.75 -8.2,-15.74 -13.28,-16.28 -24.34,21.48 -42.54,37.1 -61.17,52.34 -17.19,14.06 -34.77,27.66 -53.13,41.13 -0.51,5.08 6.57,15.59 13.28,16.29 l 9.07,-5.08 c 14.45,-7.93 26.4,-12.26 38.08,-5.54 15.35,8.36 45.28,42.03 76.02,79.69 l 96.52,118.04 c 20.86,25.55 26.52,33.36 29.06,42.11 2.74,10.98 0.79,21.87 -13.59,37.5 l -11.48,12.46 c -0.24,6.37 9.37,17.15 15.15,14.89 21.06,-18.79 43.91,-38.29 62.97,-53.83 15.78,-12.94 29.69,-23.48 40.24,-30.67 -12.5,-24.73 -11.18,-84.68 -10.04,-168.59 l 1.44,-77.93 c 0.67,-40.86 0.86,-68.17 2.81,-87.58 5.67,3.12 12.11,11.02 18.95,19.37 l 52.46,64.15 c 30.74,37.61 57.42,73.98 62.54,90.7 3.79,13.2 -3.79,24.8 -14.81,36.91 l -11.01,12.11 c -0.7,6.76 8.24,15.75 13.28,16.37 24.34,-21.41 42.07,-36.72 61.09,-52.26 17.19,-14.07 34.34,-27.27 53.25,-41.33 0.5,-5.08 -6.53,-15.55 -13.32,-16.25 l -9.54,5.46 c -13.59,8.01 -25.43,11.53 -37.57,5.16 -15.39,-8.36 -45.71,-41.64 -76.53,-79.3 l -90.78,-111.05" /><path
         id="path42"
         style="fill:#ffffff;fill-opacity:1;fill-rule:nonzero;stroke:none"
         d="m 4263.36,3968.37 c -43.01,-36.52 -43.91,-41.99 -29.69,-66.13 l 8.6,-14.77 c 0.35,-6.01 -10.55,-14.45 -16.41,-13.12 -20.08,25.5 -38.67,48.36 -56.88,69.84 -18.67,21.95 -38.51,44.45 -60.39,68.36 -0.39,6.01 10.16,14.92 16.02,13.59 l 13.16,-10.86 c 21.49,-17.97 27.07,-17.97 70.08,18.52 l 168.44,142.89 c 43.01,36.52 43.91,41.99 29.69,66.17 l -8.56,14.77 c -0.39,5.97 10.16,14.92 16.02,13.59 20.04,-25.47 38.98,-48.79 57.65,-70.7 18.25,-21.56 38.13,-44.03 60.04,-68.05 0.28,-5.94 -10.19,-14.88 -16.05,-13.59 l -13.13,10.93 c -21.56,17.9 -27.07,17.97 -70.15,-18.55 l -168.44,-142.89" /><path
         id="path44"
         style="fill:#ffffff;fill-opacity:1;fill-rule:nonzero;stroke:none"
         d="m 4519.3,3698.96 c -77.97,-11.18 -126.96,-21.72 -162.82,-27.27 -5.03,2.58 -10.31,7.81 -14.92,15.55 -3.67,6.17 -4.96,11.72 -4.29,16.4 10.54,13.99 32.53,39.14 45.7,56.84 l 159.22,209.06 c 37.61,49.22 37.11,52.38 31.33,71.29 l -7.23,23.67 c 3.24,7.5 13.4,11.56 18.75,8.48 15.23,-26.56 24.41,-44.14 40.47,-70.9 14.22,-23.67 28.01,-45.47 47.93,-76.17 -0.67,-5.98 -10.78,-11.33 -17.19,-11.02 l -12.38,13.56 c -7.62,8.01 -12.85,9.76 -17.54,6.99 -4.06,-2.5 -20.7,-23.67 -44.14,-54.53 l -88.56,-114.77 c -14.65,-18.67 -23.43,-30.93 -29.96,-39.76 11.21,1.13 28.79,3.32 47.93,6.4 l 59.77,10 c 40.11,6.64 110.7,19.65 131.87,23.99 11.92,2.26 18.52,4.1 21.6,5.94 3.6,2.18 4.73,5 0.43,19.14 l -5.35,17.11 c 1.6,6.56 12.38,13.04 18.67,8.28 13.52,-24.77 24.77,-44.61 36.49,-64.18 10.51,-17.46 20.31,-32.62 30.27,-46.76 0.39,-5.31 -11.6,-13.28 -16.91,-11.49 l -10.59,11.8 c -11.17,12.85 -20.15,17.27 -35,17.46 -23.71,1.14 -59.88,-1.68 -111.99,-9.22 l -111.56,-15.89" /><path
         id="path46"
         style="fill:#ffffff;fill-opacity:1;fill-rule:nonzero;stroke:none"
         d="m 4728.98,3457.28 c -15.82,-5.67 -16.71,-6.68 -11.25,-21.92 l 14.07,-38.94 c 10.62,-29.38 17.03,-34.73 46.09,-30.59 l 15.16,2.27 c 5.93,-2.35 11.01,-16.41 7.03,-21.18 -18.52,-5.39 -39.06,-12.18 -60.51,-19.92 -21.44,-7.73 -41.52,-15.62 -59.22,-23.16 -6.09,0.97 -11.72,14.88 -8.08,20.66 l 13.04,7.93 c 25.12,15.43 27.19,23.83 16.57,53.17 l -13.99,38.98 c -5.59,15.23 -6.33,15.59 -23.28,9.45 l -67.19,-24.22 c -25.94,-9.37 -43.2,-18.12 -50.39,-28.35 -7.5,-11.02 -8.08,-23.36 6.76,-64.61 17.73,-49.11 26.37,-67.7 101.37,-75.71 7.81,-2.3 10.62,-17.18 4.68,-21.95 -30.15,-8.28 -80.78,-11.25 -98.9,-8.87 -9.69,30.35 -28.64,84.73 -45.31,131.06 l -26.49,73.4 c -9.8,27.07 -20.35,54.53 -36.76,96.48 1.76,5.74 15.28,10.62 19.77,7.15 l 13.51,-25.12 c 13.17,-24.02 17.74,-26.13 69.69,-7.42 l 210.55,75.98 c 51.37,18.55 53.55,23.16 49.49,50.39 l -2.26,15.15 c 1.48,6.25 14.68,10.39 20.15,5.98 8.44,-26.95 17.89,-54.81 27.66,-81.91 l 43.12,-119.69 c 13.13,-36.14 25.24,-68.09 29.03,-75 -8.83,-3.87 -48.05,-22.5 -84.89,-38.95 -7.03,0 -12.81,12.62 -9.76,20.08 17.5,13.32 31.56,27.34 36.83,37.54 6.88,14.61 7.54,33.98 -2.46,61.64 l -16.29,45.16 c -6.75,18.67 -7.81,18.2 -28.71,10.7 l -98.83,-35.66" /><path
         id="path48"
         style="fill:#ffffff;fill-opacity:1;fill-rule:nonzero;stroke:none"
         d="m 4819.53,3051.38 c -20.82,-2.93 -22.38,-5 -17.42,-40.04 3.05,-21.37 10.12,-33.13 23.01,-42.81 11.6,-8.68 32.18,-17.31 67.22,-12.35 53.48,7.54 83.52,43.95 76.96,90.28 -3.4,24.37 -5.35,25.31 -33.91,21.28 z m 63.95,92.11 c 59.41,8.36 65.82,10.47 65.82,35.93 l 0.15,16.41 c 2.11,6.33 17,8.44 20.94,1.72 9.3,-44.14 18.2,-90.16 26.17,-146.64 7.11,-50.51 5.55,-95 -5,-119.49 -15.31,-37.35 -42.46,-59.38 -80.54,-64.73 -52.89,-7.5 -80.47,25 -98.05,50.39 -3.83,5.55 -7.34,5.04 -13.48,1.13 -74.1,-50.47 -115.23,-81.13 -135.54,-113.08 -10.36,-17.23 -11.72,-33.17 -11.06,-42.19 -2.23,-5.74 -11.09,-7.03 -15.12,-4.57 -5.47,8.94 -9.37,27.77 -11.95,46.21 -7.73,54.69 7.03,91.95 46.13,124.1 28.83,23.48 55.94,41.29 85.55,59.38 15.04,9.41 18.44,19.57 16.37,34.41 -2.93,20.82 -4.3,21.84 -16.17,20.2 l -73.17,-10.36 c -54.61,-7.73 -58.28,-11.87 -59.26,-39.29 l -0.66,-16.45 c -2.46,-4.57 -16.72,-6.6 -20.82,-2.85 -3.32,31.68 -6.52,59.06 -10.55,87.58 -4.18,29.73 -8.47,55.78 -14.06,86.48 2.89,5.24 17.19,7.27 20.82,2.93 l 5.2,-15.62 c 8.55,-26.06 13.24,-29.06 67.89,-21.37 l 210.39,29.77" /><path
         id="path50"
         style="fill:#ffffff;fill-opacity:1;fill-rule:nonzero;stroke:none"
         d="m 4613.52,2612.08 c 2.96,55.08 20.35,88.4 28.2,100.59 13.79,10.66 57.26,16.17 98.05,13.98 7.57,-4.61 7.42,-18.4 0.54,-22.85 -39.53,-9.88 -96.79,-47.07 -99.53,-97.97 -2.34,-44.34 27.07,-66.33 57.03,-67.93 48.56,-2.58 79.69,41.37 99.61,76.33 23.83,41.99 62.35,87.38 121.6,84.22 67.74,-3.01 111.61,-58.24 107,-145.08 -1.1,-19.77 -4.81,-44.18 -13.25,-67.77 -2.85,-7.66 -4.29,-12.97 -5.86,-20.08 -13.47,-4.1 -46.09,-8.36 -86.21,-6.21 -7.03,3.36 -6.87,18.4 -0.62,23.43 31.13,8.56 76.17,32 78.51,75.12 2.11,39.53 -22.42,62.42 -52.42,64.06 -27.54,1.45 -53.98,-21.75 -71.17,-50.86 l -23.05,-38.43 c -21.79,-36.02 -59.06,-81.49 -124.92,-77.97 -73.67,3.94 -118.36,66.99 -113.51,157.42" /><path
         id="path52"
         style="fill:#ffffff;fill-opacity:1;fill-rule:nonzero;stroke:none"
         d="m 4662.97,2252.51 c -55.24,11.33 -60.08,8.63 -70.31,-17.42 l -6.29,-15.82 c -4.49,-3.99 -17.89,-0.63 -20.47,4.69 7.69,31.48 14.22,60.15 19.88,87.81 5.78,28.2 11.17,57.69 16.56,89.69 4.46,3.98 17.97,1.21 20.55,-4.22 l -0.47,-17.03 c -0.82,-28.01 2.58,-32.39 57.78,-43.72 l 216.17,-44.33 c 55.27,-11.33 60.04,-8.67 70.31,17.38 l 6.37,15.86 c 4.45,3.98 17.97,1.21 20.54,-4.22 -7.65,-31.52 -14.29,-60.78 -20.07,-88.98 -5.67,-27.62 -11.14,-57.15 -16.45,-89.03 -4.49,-3.98 -18.01,-1.21 -20.59,4.22 l 0.4,17.07 c 0.89,27.97 -2.5,32.35 -57.7,43.67 l -216.21,44.38" /><path
         id="path54"
         style="fill:#ffffff;fill-opacity:1;fill-rule:nonzero;stroke:none"
         d="m 4841.29,1925.63 c 13.48,-5.15 16.29,-6.21 21.37,7.27 l 13.36,34.77 c 15.66,40.89 -2.31,61.29 -36.8,93.75 -0.78,8 4.41,18.24 13.01,18.82 34.18,-26.56 67.85,-42.69 88.24,-54.96 0.82,-2.89 0.86,-6.13 -0.2,-8.9 -1.09,-2.82 -2.69,-5.39 -5.23,-7.03 -10.66,0.86 -13.52,0.03 -29.81,-42.58 l -79.76,-208.6 c -14.14,-37.03 -16.8,-45.62 -6.95,-55.19 0.27,-2.7 0.23,-4.57 -1.1,-7.97 -1.33,-3.36 -5.04,-6.37 -7.19,-6.88 -16.87,12.9 -60.85,34.18 -93.16,45.28 -4.02,4.72 0.66,20.31 6.25,21.44 39.49,-4.22 68.87,-6.44 84.96,35.59 l 12.85,33.63 c 5.12,13.48 4.1,15.78 -10.5,21.37 l -247.27,94.57 c -52.15,19.92 -57.89,18.28 -70.94,-5.66 l -11.4,-21.37 c -4.85,-2.66 -17.74,2.3 -19.61,7.34 15.04,36.06 26.36,63.87 35.97,89.14 10.32,26.92 20.86,56.33 34.77,96.06 5.08,3.2 17.97,-1.72 19.65,-7.5 l -6.88,-26.33 c -6.87,-26.25 -3.04,-31.56 49.1,-51.52 l 247.27,-94.54" /><path
         id="path56"
         style="fill:#ffffff;fill-opacity:1;fill-rule:nonzero;stroke:none"
         d="m 4368.83,1575.71 c -46.95,30.08 -52.97,29.61 -70.55,8.79 l -15.47,-18.55 c -5.31,-1.57 -16.91,5.86 -17.69,11.48 22.07,32.19 38.4,56.6 53.9,80.82 15.51,24.22 31.25,49.81 49.34,80.2 5.55,2.03 17.19,-5.39 17.66,-11.33 l -8.52,-18.83 c -11.02,-25 -9.41,-30.31 37.58,-60.39 l 25.23,-16.13 c 25.32,-16.21 33.67,-20.9 68.83,-24.89 l 162.77,-19.45 c 27.19,-3.2 38.13,-3.79 52.47,11.92 l 14.06,15.23 c 6.95,1.95 18.75,-6.33 16.4,-13.36 -15.62,-22.07 -28.04,-40.39 -47.14,-70.16 -19.73,-30.82 -35.75,-56.91 -45.71,-74.76 -4.92,-3.24 -17.19,3.16 -18.32,10.31 l 6.96,19.77 c 3.78,10.35 3.75,14.68 3.2,15.04 -4.06,2.54 -13.2,4.88 -43.75,9.45 l -69.3,10.94 c -21.48,3.04 -47.81,6.4 -64.33,8.4 15.39,-30.47 35.66,-63.36 52.61,-93.48 23.56,-42.15 35.78,-59.92 41.8,-63.83 3.05,-1.91 8.28,1.84 18.09,12.7 l 9.41,10.31 c 5.16,2.38 18.09,-5.16 17.34,-11.68 -13.9,-19.53 -26.09,-37.42 -37.69,-55.59 -12.31,-19.18 -21.84,-35.15 -30.2,-50.66 -5.93,-4.73 -18.04,3.01 -18.98,9.33 l 5.94,14.73 c 4.29,10.12 6.87,21.92 3.36,31.99 -4.77,13.75 -14.85,38.05 -43.21,90.43 l -37.22,68.64 c -15.36,28.39 -24.73,41.52 -53.52,59.96 l -35.35,22.65" /><path
         id="path58"
         style="fill:#ffffff;fill-opacity:1;fill-rule:nonzero;stroke:none"
         d="m 2216.48,504.27 c -11.95,-49.809 -9.72,-56.961 20.24,-66.719 l 25.04,-8.012 c 4.72,-5.078 0.19,-21.09 -6.53,-21.48 -22.03,6.64 -59.25,16.211 -97.89,25.5 -41.05,9.851 -78.55,18.211 -101.32,22.351 -5.75,3.32 -2.47,19.692 4.02,22.07 l 25.98,-4.261 c 31.09,-4.797 36.32,0.511 48.28,50.312 l 48.9,203.559 c 9.85,41.129 9.65,51.012 -16.87,61.332 l -27.74,10.66 c -4.84,4.406 -1.87,19.527 3.99,22.066 26.44,-2.418 57.3,-2.539 83.87,-1.718 29.33,1.531 55.85,7.66 60.19,6.601 3.13,-0.699 7.03,-3.633 7.11,-8.902 -4.69,-14.07 -12.23,-42.539 -19.69,-73.641 L 2216.48,504.27" /><path
         id="path60"
         style="fill:#ffffff;fill-opacity:1;fill-rule:nonzero;stroke:none"
         d="m 2477.62,702.199 c -2.58,-29.957 16.79,-58.597 67.18,-85.429 20.83,10.429 33.99,36.25 36.61,66.871 3.79,43.988 -21.49,71.25 -47,73.441 -29.33,2.539 -53.82,-20.391 -56.79,-54.883 z m 87.85,-248.519 c 4.33,50.39 -28.48,80.199 -79.26,109.652 -24.88,-20.98 -36.87,-47.543 -39.49,-78.203 -3.87,-44.649 19.18,-83.207 60.62,-86.84 28.09,-2.418 54.85,17.152 58.13,55.391 z m -201.64,31.531 c 4.14,47.848 40.74,77.461 93.32,98.629 -37.7,25.121 -63.01,58.75 -59.1,104.019 5.35,62.5 61.05,105.27 140.11,98.442 72.11,-6.172 119.77,-49.531 114.57,-110.082 -3.9,-45.309 -41.68,-65.821 -77.1,-82.028 45.74,-28.359 80.46,-65.429 75.19,-126.64 -5.12,-59.961 -56.05,-106.371 -156.21,-97.66 -74.61,6.371 -136.76,45.781 -130.78,115.32" /><path
         id="path62"
         style="fill:#ffffff;fill-opacity:1;fill-rule:nonzero;stroke:none"
         d="m 2953.24,802.121 c 5.12,0.391 7.31,-2.66 7.58,-7.152 -3.91,-24.688 -15.43,-51.84 -30.23,-68.36 l -143.09,-26.64 c -8.91,-1.949 -11.64,-8.59 -13.36,-19.649 l -2.77,-14.922 c -2.74,-15 5.74,-16.949 18.63,-17.296 34.14,-1.25 94.14,-5.86 132.66,-21.641 37.03,-15.16 71.6,-48.563 75.54,-101.609 4.93,-66.403 -30.9,-112.114 -81.72,-144.723 -50.85,-32.699 -116.4,-49.688 -169.96,-54.957 -9.92,3.75 -13.94,23.32 -6.05,29.68 45.86,5.359 96.91,18.089 125.58,38.207 36.02,25.152 55.55,56.132 52.97,90.582 -6.75,91.328 -103.24,93.871 -167.46,94.257 -20.54,-0.308 -23.51,5.274 -20.78,20.231 l 27.46,149.73 c 3.21,16.95 7.07,17.231 27.31,21.289 l 167.69,32.973" /><path
         id="path64"
         style="fill:#ffffff;fill-opacity:1;fill-rule:nonzero;stroke:none"
         d="m 3273.13,525.832 c 12.03,-49.773 17.22,-55.082 48.35,-50.203 l 25.9,4.301 c 6.53,-2.379 9.77,-18.711 4.03,-22.071 -22.74,-4.179 -60.12,-12.578 -98.68,-21.867 -41.01,-9.961 -78.24,-19.57 -100.31,-26.211 -6.64,0.348 -11.17,16.36 -6.48,21.438 l 25.04,8.051 c 29.88,9.8 32.07,16.949 20.07,66.679 l -49.17,203.403 c -9.93,41.007 -14.65,49.679 -42.93,46.867 l -29.5,-3.239 c -6.32,1.762 -10.58,16.559 -6.48,21.481 24.61,9.891 52.15,23.789 75.39,36.641 25.39,14.73 46.17,32.23 50.47,33.277 3.12,0.793 7.93,-0.07 10.39,-4.719 2.23,-14.609 8.51,-43.359 16.01,-74.449 l 57.9,-239.379" /><path
         id="path66"
         style="fill:#ffffff;fill-opacity:1;fill-rule:nonzero;stroke:none"
         d="M 2700.08,45.0117 C 1233.75,45.0117 45,1233.56 45,2699.89 45,4166.3 1233.75,5355.01 2700.08,5355.01 4166.33,5355.01 5355,4166.3 5355,2699.89 5355,1233.56 4166.33,45.0117 2700.08,45.0117 Z M 2700,5400 C 1208.63,5400 0,4191.54 0,2700.13 0,1209.22 1208.63,0 2700,0 4191.09,0 5400,1209.22 5400,2700.13 5400,4191.54 4191.09,5400 2700,5400" /><path
         id="path68"
         style="fill:#ffffff;fill-opacity:1;fill-rule:nonzero;stroke:none"
         d="M 2699.92,230.012 C 1335.78,230.012 230,1335.56 230,2699.97 230,4063.96 1335.78,5170.01 2699.92,5170.01 4064.14,5170.01 5170,4063.96 5170,2699.97 5170,1335.56 4064.14,230.012 2699.92,230.012 Z m 0.12,5049.998 C 1275.2,5280.01 120,4124.97 120,2700.21 120,1275.56 1275.2,120.012 2700.04,120.012 4124.92,120.012 5280,1275.56 5280,2700.21 c 0,1424.76 -1155.08,2579.8 -2579.96,2579.8" /><path
         id="path70"
         style="fill:#ffffff;fill-opacity:1;fill-rule:nonzero;stroke:none"
         d="m 4003.16,2885.01 c 45.51,-71.45 158.75,-93.75 224.18,-114.57 21.76,-6.95 45,-19.18 46.64,-56.68 -132.07,-46.25 -269.33,-64.84 -405.82,-60 -162.07,168.75 -183.75,318.32 -174.53,446.48 54.53,-79.41 90.94,-109.49 140.98,-159.57 31.87,57.66 73.98,126.41 112.23,179.18 9.68,-79.02 18.86,-176.01 56.32,-234.84 z m -1449.68,472.97 c -53.95,96.83 -92.11,191.37 -92.11,282.3 0,68.56 94.18,280.08 94.18,370.32 0,40.11 -6.33,78.36 -17.07,145.82 67.61,-65 131.21,-159.11 142.18,-232 65.71,102.5 80.04,179.38 80.04,260.32 0,60.47 -15.9,96.17 -39.18,162.26 89.65,-86.01 190.82,-209.92 190.82,-394.45 0,-26.88 -5.66,-52.81 -15.15,-78.32 38.86,-50.12 68.04,-135.43 68.04,-239.65 0,-124.84 -61.71,-194.92 -122.26,-276.6 h 263.75 c -50.86,86.44 -86.88,170.82 -86.88,252.07 0,61.17 88.83,250.08 88.83,330.62 0,35.82 -5.97,69.93 -16.09,130.2 63.79,-58.05 123.79,-142.07 134.14,-207.15 61.99,91.52 75.51,160.16 75.51,232.42 0,53.99 -15,85.9 -36.96,144.92 84.53,-76.87 180.04,-187.5 180.04,-352.22 0,-23.95 -5.39,-47.15 -14.29,-69.92 36.64,-44.73 64.18,-120.94 64.18,-213.95 0,-111.48 -58.25,-174.1 -115.36,-246.99 h 294.61 l -156.56,-241.06 h -36.72 l -34.18,-112.11 -15.51,-285.58 c 136.41,-28.48 250,-50.08 359.5,-60 -185.59,208.16 -181.45,472.73 -104.96,590.98 34.21,-108.95 75.5,-159.38 137.11,-220.94 52.03,89.45 107.89,163.2 168.35,238.71 5.94,-136.37 21.33,-319.18 66.49,-364.38 71.68,-71.68 179.45,-53.08 243.4,-117.07 60.66,-60.62 13.47,-266.52 -32.5,-454.92 -51.84,-73.12 -167.19,-118.98 -343.44,-118.98 -173.05,0 -372.19,34.14 -517.54,59.06 l -45.66,-828.98 17.57,-90.43 -134.84,-105.28 -134.76,105.28 17.57,90.43 -44.33,815.85 c -57.03,-21.28 -128.91,-41.99 -207.03,-55.7 l -49.73,-915.47 19.02,-97.69 -145.7,-113.83 -145.78,113.83 18.98,97.65 -49.65,915.59 c -78.2,13.71 -150.03,34.45 -207.07,55.74 l -44.29,-815.97 17.58,-90.43 -134.81,-105.28 -134.76,105.28 17.53,90.43 -45.62,828.98 c -145.39,-24.92 -344.53,-59.06 -517.58,-59.06 -176.25,0 -291.64,45.86 -343.44,118.98 -45.97,188.4 -93.12,394.3 -32.5,454.92 63.95,63.99 171.72,45.39 243.36,117.07 45.24,45.2 60.59,228.01 66.57,364.38 60.39,-75.51 116.25,-149.26 168.36,-238.71 61.56,61.56 102.81,111.99 137.07,220.94 76.48,-118.25 80.62,-382.82 -104.97,-590.98 109.46,9.92 223.09,31.52 359.46,60 l -15.47,285.66 -34.22,112.03 h -36.68 l -156.56,241.06 h 291.17 c -50.86,86.44 -86.88,170.82 -86.88,252.07 0,61.17 88.83,250.08 88.83,330.62 0,35.82 -5.97,69.93 -16.09,130.2 63.79,-58.05 123.79,-142.07 134.14,-207.15 61.99,91.52 75.51,160.16 75.51,232.42 0,53.99 -15,85.9 -36.96,144.92 84.54,-76.87 180.04,-187.5 180.04,-352.22 0,-23.95 -5.35,-47.15 -14.33,-69.92 36.68,-44.73 64.22,-120.94 64.22,-213.95 0,-111.48 -58.21,-174.1 -115.39,-246.99 z m 875,-694.3 c 164.41,-34.26 325.78,-64.72 459.65,-64.61 85.93,0.08 214.21,4.26 386.71,56.76 -6.71,-78.71 -30,-201.25 -56.21,-300.23 -42.15,-53.83 -142.3,-87.97 -293.2,-87.97 -168.4,0 -371.76,34.88 -515.2,59.45 z m -1975.35,456.17 c 38.24,-52.77 80.31,-121.52 112.22,-179.18 50.04,50.08 86.45,80.16 140.98,159.57 9.22,-128.16 -12.46,-277.73 -174.53,-446.48 -136.49,-4.84 -273.75,13.75 -405.86,60 1.68,37.5 24.92,49.73 46.68,56.68 65.43,20.82 178.67,43.12 224.18,114.57 37.46,58.83 46.64,155.82 56.33,234.84 z m 536.64,-792.77 c -143.48,-24.57 -346.84,-59.45 -515.24,-59.45 -150.9,0 -251.09,34.14 -293.2,87.97 -26.21,98.98 -49.49,221.52 -56.21,300.23 172.5,-52.5 300.82,-56.68 386.68,-56.76 133.9,-0.11 295.27,30.35 459.68,64.61 z m 1013.36,54.3 c 30.85,8.16 44.72,30.31 38.32,54.53 -5.67,21.48 -24.46,30.58 -40.2,34.18 l -15.08,3.47 c -16.01,3.75 -24.76,11.68 -27.11,20.63 -2.97,11.25 1.17,24.14 18.13,28.67 18.12,4.81 29.26,-7.5 35.39,-17.65 2.3,-0.98 6.17,0.23 6.68,2.42 -2.7,10 -8.48,23.43 -12.07,27.5 -10.47,-0.71 -19.3,-0.32 -30.39,-3.25 -31.02,-8.24 -41.96,-30.27 -36.41,-51.28 5.08,-19.18 22.58,-28.44 40.82,-33.09 l 10.51,-2.66 c 18.36,-4.72 26.68,-13 29.92,-25.11 3.44,-12.97 -3.09,-25.16 -19.3,-29.5 -20.82,-5.5 -38.36,14.18 -45,24.03 -2.11,1.01 -5.66,-0.12 -6.4,-2.58 3.36,-13.24 9.96,-27.19 14.96,-30.59 4.96,-1.44 17.69,-4.92 37.23,0.28 z m -162.31,-2.35 c 4.53,-22.93 2.7,-23.98 -7.23,-27.07 l -7.81,-2.42 c -1.21,-1.83 -0.27,-5.66 1.68,-6.17 9.61,2.34 22.77,5.16 32.31,7.03 l 24.61,4.88 c 25.31,4.96 43.9,8.4 53.51,9.89 1.88,6.4 3.36,23.75 2.89,33.08 -1.72,1.92 -5.55,1.84 -7.19,-0.08 -4.06,-18.98 -7.65,-25.93 -35.15,-31.13 -18.21,-3.4 -22.19,-2.62 -25.35,-0.08 -3.95,3.01 -5.9,10.75 -8.09,21.76 l -5.43,27.42 c -1.05,5.43 -0.9,5.9 4.02,6.88 l 10.39,2.03 c 18.83,3.71 22.54,4.02 25.86,-4.77 l 3.25,-8.36 c 1.95,-0.93 6.05,-0.11 6.87,1.57 -1.6,6.83 -3.48,14.29 -5.19,22.5 -1.53,7.97 -2.66,15.86 -3.56,21.72 -1.44,1.64 -5.51,0.82 -6.95,-1.06 l -0.08,-7.62 c -0.12,-9.68 -3.32,-10.54 -22.15,-14.22 l -10.31,-2.07 c -5,-0.97 -5.27,-0.78 -6.37,4.85 l -7.15,36.48 c -2.5,12.31 -2.57,12.78 6.72,14.57 l 14.49,2.89 c 5.82,1.14 12.47,1.8 17.66,1.45 7.31,-0.55 11.6,-5.12 17.54,-16.99 1.95,-0.94 6.17,0.35 6.72,2.26 -3.13,9.03 -7.78,25.82 -9.38,29.34 -2.73,-0.98 -15.23,-3.67 -29.06,-6.37 l -41.29,-8.16 c -9.53,-1.88 -19.72,-3.64 -28.01,-4.85 -1.52,-1.21 -0.97,-5.15 0.79,-6.36 l 3.59,0.27 c 10.39,0.7 12.54,0.19 17.03,-22.7 z m -131.84,-11.52 c 0.86,-23.28 -1.09,-23.55 -11.4,-25.27 l -9.18,-1.49 c -1.45,-1.13 -1.13,-5.51 0.7,-6.33 14.03,0.98 24.34,1.61 34.03,1.92 9.68,0.39 19.53,0.54 32.34,0.58 1.72,0.94 1.76,4.93 0.16,6.37 l -7.97,0.59 c -10.32,0.7 -12.35,1.29 -13.21,24.57 l -3.51,94.88 c -0.39,9.22 -0.16,9.69 5.54,9.92 l 12.47,0.43 c 23.55,0.9 27.89,-3.12 31.36,-20.12 2.03,-1.48 5.74,-0.93 6.8,0.86 -0.94,7.04 0.16,25.98 1.95,35.08 -0.43,0.63 -1.56,1.02 -2.89,0.98 -0.86,-0.04 -1.72,-0.51 -2.58,-0.98 -2.42,-5.15 -5.7,-5.94 -16.48,-6.33 l -89.61,-3.36 c -14.92,-0.54 -18.05,-0.43 -19.3,5 -0.54,0.75 -1.4,0.94 -2.26,0.9 -1.1,-0.04 -1.96,-0.31 -2.35,-0.97 -1.25,-7.86 -4.06,-21.57 -7.38,-33.6 1.02,-2.15 5.59,-2.61 7.11,-1.25 7.46,18.09 13.32,20.71 33.52,21.49 l 12.3,0.47 c 5.7,0.19 5.94,-0.24 6.33,-9.46 z m -149.72,60.43 c -1.13,-6.95 -1.17,-7.34 9.26,-9.06 21.28,-3.36 32.73,5.5 35.97,26.13 2.7,17.15 -5.97,33.91 -24.84,36.91 -11.29,1.8 -11.6,1.18 -13.24,-8.82 z m -32.85,-44.18 c -3.68,-23.01 -5.71,-23.4 -16.14,-23.05 l -4.88,0.12 c -2.23,-1.21 -2.19,-5.27 -0.59,-6.37 10.08,-1.17 19.85,-2.5 29.42,-4.02 9.57,-1.52 19.3,-3.28 28.83,-5.23 1.83,0.58 2.65,4.45 1.4,6.21 l -4.65,1.44 c -10,2.89 -11.87,3.83 -8.24,26.88 l 4.46,27.81 c 0.7,4.53 0.93,4.73 7.5,3.67 7.14,-1.13 9.41,-2.38 12.26,-9.53 3.87,-9.26 8.09,-22.23 12.46,-32.23 10.04,-22.3 20.04,-32.58 40.86,-35.9 7.54,-1.21 11.84,-1.17 14.49,-0.97 0.86,1.01 1.21,3.36 0.32,4.45 -2.58,0.63 -8.75,2.89 -13.95,9.06 -8.87,10.12 -16.76,30.28 -29.49,62.39 -0.7,1.4 -0.82,3.24 0.55,3.67 11.4,2.65 28.39,10.23 31.56,30.15 2.5,15.63 -3.95,27.11 -14.06,34.77 -8.75,6.72 -23.21,11.25 -40.12,13.91 -17.81,2.89 -36.37,5.15 -50.24,6.01 -1.87,-0.78 -2.42,-4.26 -1.17,-6.01 l 5.51,-1.57 c 10.08,-2.73 9.84,-5.35 6.52,-26.21 z m -90.08,56.76 c 6.01,-1.49 6.99,-1.29 6.56,4.22 l -2.38,27.89 c -0.9,12.26 -0.98,16.64 -1.64,18.36 l -0.43,0.11 c -1.25,-1.29 -4.53,-6.13 -10.71,-15.19 l -15.31,-22.66 c -3.75,-5.62 -3.36,-5.74 1.8,-7.03 z m 0.31,-10.28 c 6.02,-1.52 6.88,-1.75 7.31,-8 l 2.61,-31.53 c 0.86,-9.8 -0.51,-10.78 -8.43,-9.88 l -4.85,0.59 c -1.64,-0.98 -2.42,-4.89 -0.94,-6.37 7.5,-1.72 16.96,-3.67 26.1,-6.02 11.17,-2.85 18.94,-5.07 27.61,-7.73 1.76,0.7 2.66,4.3 1.37,6.25 l -3.04,1.44 c -10.32,4.93 -11.1,6.49 -12.31,22 l -7.85,97.14 c -0.94,10.43 -1.17,21.18 -2.11,31.65 -0.59,1.28 -1.48,2.18 -3.16,2.61 -0.43,0.12 -9.73,-6.79 -17.58,-6.36 -0.28,-3.79 -3.71,-8.4 -8.01,-14.57 l -48.59,-68.36 c -7.5,-10.39 -13.13,-18.44 -17.15,-23.29 -4.96,-6.25 -7.78,-7.38 -14.18,-6.83 l -6.68,0.58 c -1.99,-1.56 -2.58,-4.8 -1.37,-6.25 7.58,-1.48 14.22,-3 21.25,-4.76 8.71,-2.46 15.7,-4.26 22.42,-6.41 1.96,0.39 3.09,4.14 2.03,6.06 l -5.93,2.61 c -7.58,3.32 -8.28,3.95 -0.86,15.47 l 15.31,23.32 c 3.44,5.24 3.16,5.32 8.75,3.91 z m -599.22,-39.88 c 31.64,4.53 48.09,24.88 44.53,49.77 -3.2,21.99 -20.78,33.28 -36.05,38.63 l -14.57,5.27 c -15.47,5.55 -23.2,14.46 -24.49,23.6 -1.68,11.56 3.9,23.98 21.32,26.44 18.56,2.66 28.25,-10.82 33.17,-21.72 2.19,-1.21 6.09,-0.47 6.87,1.68 -1.48,10.24 -5.7,24.3 -8.82,28.75 -10.47,0.51 -19.15,1.96 -30.47,0.32 -31.84,-4.57 -45.36,-25.2 -42.27,-46.8 2.81,-19.61 19.14,-30.86 36.8,-37.66 l 10.11,-3.9 c 17.7,-6.8 24.97,-15.98 26.76,-28.4 1.96,-13.28 -6.01,-24.69 -22.58,-27.07 -21.36,-3.05 -36.48,18.59 -42.03,29.14 -1.95,1.29 -5.62,0.51 -6.6,-1.88 1.72,-13.51 6.72,-28.16 11.29,-32.18 4.77,-1.96 17.03,-6.88 37.03,-3.99 z m -163.75,13.01 c 2.97,-23.09 1.1,-24.02 -8.98,-26.45 l -7.97,-1.87 c -1.33,-1.76 -0.59,-5.67 1.25,-6.29 9.76,1.68 23.01,3.63 32.62,4.88 l 24.88,3.21 c 25.47,3.32 44.22,5.54 53.87,6.32 2.3,6.29 4.96,23.48 5.07,32.82 -1.6,1.99 -5.39,2.18 -7.14,0.39 -5.32,-18.67 -9.34,-25.39 -37.07,-28.75 -18.32,-2.15 -22.23,-1.1 -25.24,1.6 -3.75,3.32 -5.19,11.09 -6.64,22.23 l -3.59,27.65 c -0.67,5.47 -0.55,5.94 4.49,6.56 l 10.43,1.37 c 18.98,2.46 22.73,2.5 25.47,-6.44 l 2.61,-8.52 c 1.96,-1.09 6.1,-0.55 6.96,1.09 -1.1,7 -2.54,14.57 -3.6,22.86 -1.05,8.08 -1.64,15.97 -2.18,21.91 -1.33,1.52 -5.47,0.98 -7,-0.78 l -0.58,-7.62 c -0.74,-9.57 -3.99,-10.23 -22.93,-12.69 l -10.47,-1.37 c -5,-0.63 -5.23,-0.47 -6.02,5.23 l -4.72,36.84 c -1.64,12.42 -1.68,12.81 7.65,14.06 l 14.65,1.88 c 5.86,0.78 12.5,0.97 17.7,0.31 7.19,-1.09 11.17,-5.86 16.29,-18.05 1.91,-1.09 6.21,-0.08 6.83,1.76 -2.5,9.18 -6.01,26.25 -7.38,29.84 -2.77,-0.82 -15.43,-2.65 -29.34,-4.49 l -41.64,-5.35 c -9.61,-1.25 -19.88,-2.38 -28.2,-3.01 -1.64,-1.09 -1.33,-5.04 0.35,-6.37 h 3.56 c 10.43,0.04 12.5,-0.58 15.5,-23.67 z m -135.56,38.68 c 0.31,-7.03 0.35,-7.46 10.93,-6.99 21.53,1.05 30.9,12.11 29.92,32.97 -0.85,17.38 -12.81,32.03 -31.95,31.09 -11.44,-0.55 -11.64,-1.21 -11.13,-11.33 z m -23.19,-50.09 c 1.13,-23.32 -0.82,-24.06 -11.09,-25.9 l -4.77,-0.89 c -1.95,-1.61 -1.09,-5.55 0.71,-6.33 10.11,0.94 20,1.64 29.68,2.11 9.69,0.47 19.61,0.74 29.3,0.74 1.68,0.94 1.72,4.92 0.12,6.41 l -4.89,0.43 c -10.39,0.82 -12.42,1.36 -13.51,24.68 l -1.37,28.17 c -0.23,4.61 -0.04,4.84 6.56,5.15 7.23,0.35 9.73,-0.39 14.03,-6.79 5.66,-8.36 12.42,-20.16 18.79,-29.11 14.41,-19.8 26.29,-27.81 47.38,-26.79 7.73,0.39 11.87,1.25 14.45,2.03 0.63,1.13 0.51,3.55 -0.66,4.37 -2.62,0.12 -9.1,1.1 -15.51,6.1 -10.7,8.04 -22.66,26.21 -41.68,55.08 -0.9,1.25 -1.44,3 -0.19,3.71 10.58,4.92 25.7,15.78 24.72,36.05 -0.78,15.82 -9.41,25.74 -20.9,31.17 -9.92,4.81 -25,6.29 -42.18,5.43 -18.01,-0.86 -36.68,-2.42 -50.47,-4.41 -1.72,-1.17 -1.53,-4.69 0.08,-6.17 l 5.74,-0.39 c 10.39,-0.59 10.74,-3.21 11.76,-24.34 z m -66.48,81.53 c 1.13,23.28 3.12,23.86 13.51,24.68 l 4.89,0.43 c 1.6,1.45 1.6,5.43 -0.12,6.37 -9.69,-0.08 -19.61,0.16 -29.26,0.63 -10.12,0.5 -20,1.17 -29.65,2.11 -1.79,-0.63 -2.22,-4.61 -0.74,-6.22 l 4.81,-0.89 c 10.23,-1.8 12.18,-2.58 11.09,-25.86 l -3.99,-81.72 c -1.13,-23.28 -3.16,-23.87 -13.51,-24.69 l -4.92,-0.43 c -1.6,-1.44 -1.57,-5.43 0.15,-6.37 9.69,-0.04 20.04,-0.35 29.69,-0.78 9.69,-0.47 19.57,-1.17 29.22,-2.11 1.8,0.78 2.19,4.77 0.7,6.37 l -4.76,0.9 c -10.28,1.8 -12.19,2.58 -11.1,25.86 z m -106.8,-20.78 c 12.46,21.01 20.2,35 27.42,44.84 4.46,5.94 9.42,6.95 14.57,7.5 l 5.59,0.47 c 1.25,1.64 1.87,5.15 0.23,6.4 -6.17,0.28 -13.43,0.86 -21.29,1.72 -6.99,0.74 -14.41,1.8 -23.32,3.21 -1.87,-0.98 -2.46,-4.46 -1.13,-6.37 l 6.17,-2.23 c 6.41,-2.22 6.84,-4.06 2.42,-12.42 -14.84,-28.48 -31.25,-57.27 -46.05,-83.55 -1.64,5.27 -6.17,18.78 -9.02,29.1 l -11.53,40.66 c -6.56,23.28 -7.77,28.28 -7.57,30.27 0.19,1.72 2.07,2.66 7.03,3.21 l 5.58,0.7 c 2.15,1.33 2.31,4.84 0.47,6.41 -11.64,0.86 -19.1,1.44 -28.94,2.5 -8.52,0.93 -17.93,2.18 -26.41,3.51 -2.27,-0.43 -2.66,-4.37 -1.33,-6.09 l 5.16,-1.64 c 8.55,-2.7 10.19,-6.02 14.72,-21.33 l 28.29,-96.25 c 2.96,-9.61 5.27,-20.7 6.95,-29.77 1.01,-0.78 2.54,-1.4 4.06,-1.56 1.52,-0.15 3.32,0.08 3.83,0.71 4.92,10.74 17.77,35.23 28.91,54.17 z m 2813.59,-64.54 c 31.06,7.58 45.4,29.46 39.5,53.83 -5.32,21.64 -23.91,31.13 -39.61,35.04 l -14.92,3.87 c -15.98,4.02 -24.57,12.15 -26.72,21.17 -2.74,11.33 1.64,24.18 18.67,28.36 18.24,4.41 29.22,-8.13 35.12,-18.48 2.3,-1.01 6.09,0.12 6.71,2.31 -2.46,10.08 -8.04,23.67 -11.52,27.81 -10.58,-0.55 -19.33,0.08 -30.47,-2.66 -31.25,-7.57 -42.65,-29.41 -37.54,-50.62 4.69,-19.22 22.03,-28.87 40.24,-33.95 l 10.47,-2.93 c 18.28,-5.07 26.4,-13.51 29.37,-25.7 3.17,-13.05 -3.59,-25.16 -19.84,-29.06 -21.02,-5.16 -38.21,14.96 -44.69,24.92 -2.03,1.09 -5.66,0 -6.45,-2.42 3.05,-13.36 9.42,-27.46 14.38,-31.02 4.92,-1.52 17.58,-5.23 37.3,-0.47 z m -163.28,3.17 c 2.89,-23.09 1.02,-23.99 -9.06,-26.37 l -7.93,-1.91 c -1.33,-1.72 -0.58,-5.59 1.25,-6.25 9.69,1.68 23.01,3.55 32.62,4.76 l 24.84,3.13 c 25.47,3.24 44.26,5.35 53.91,6.13 2.26,6.29 5,23.44 5.19,32.77 -1.64,2 -5.43,2.19 -7.14,0.43 -5.4,-18.63 -9.42,-25.31 -37.11,-28.59 -18.4,-2.11 -22.31,-1.02 -25.28,1.68 -3.75,3.28 -5.19,11.09 -6.56,22.23 l -3.52,27.65 c -0.66,5.47 -0.46,5.9 4.54,6.56 l 10.46,1.29 c 18.87,2.43 22.7,2.46 25.36,-6.52 l 2.61,-8.52 c 1.92,-1.09 6.06,-0.54 6.96,1.1 -1.06,6.91 -2.5,14.45 -3.52,22.77 -1.05,8.05 -1.6,15.98 -2.07,21.88 -1.33,1.64 -5.43,1.13 -7.03,-0.67 l -0.63,-7.58 c -0.74,-9.6 -3.98,-10.23 -22.96,-12.65 l -10.47,-1.29 c -5,-0.66 -5.2,-0.43 -5.98,5.19 l -4.65,36.88 c -1.52,12.42 -1.6,12.81 7.77,13.98 l 14.58,1.88 c 5.89,0.7 12.53,0.9 17.69,0.23 7.23,-1.09 11.13,-5.86 16.29,-18.12 1.84,-1.1 6.17,-0.08 6.87,1.8 -2.57,9.17 -5.97,26.25 -7.38,29.84 -2.77,-0.82 -15.39,-2.62 -29.3,-4.38 l -41.6,-5.23 c -9.57,-1.25 -19.84,-2.31 -28.28,-2.89 -1.56,-1.09 -1.33,-5.08 0.39,-6.41 h 3.52 c 10.47,0 12.5,-0.62 15.39,-23.75 z m -123.82,46.87 c -0.16,-7.07 -0.2,-7.46 10.35,-7.81 21.48,-0.66 31.72,9.57 32.34,30.43 0.59,17.34 -10.19,32.85 -29.22,33.44 -11.44,0.35 -11.76,-0.28 -11.99,-10.39 z m -27,-47.97 c -0.74,-23.28 -2.69,-23.86 -13.08,-24.88 l -4.92,-0.47 c -2,-1.48 -1.45,-5.47 0.27,-6.4 10.15,0.11 20.04,0.04 29.69,-0.28 9.68,-0.27 19.53,-0.82 29.18,-1.56 1.79,0.82 2.11,4.77 0.62,6.37 l -4.76,0.78 c -10.32,1.64 -12.23,2.34 -11.53,25.62 l 0.9,28.13 c 0.16,4.61 0.35,4.84 6.99,4.61 7.23,-0.24 9.61,-1.17 13.32,-7.89 5.04,-8.71 10.78,-20.98 16.41,-30.39 12.77,-20.86 23.87,-29.77 44.96,-30.43 7.7,-0.28 11.91,0.27 14.57,0.86 0.74,1.05 0.82,3.47 -0.31,4.41 -2.62,0.27 -8.91,1.8 -14.89,7.27 -10.03,8.9 -20.42,27.89 -37.14,58.12 -0.86,1.33 -1.18,3.09 0.11,3.75 10.9,4.02 26.84,13.63 27.46,33.83 0.55,15.82 -7.26,26.41 -18.28,32.69 -9.49,5.55 -24.37,8.21 -41.52,8.79 -17.97,0.55 -36.72,0.47 -50.55,-0.43 -1.79,-1.05 -1.91,-4.57 -0.39,-6.13 l 5.63,-0.82 c 10.31,-1.44 10.43,-4.06 9.76,-25.16 z m -150.9,58.91 c -3.51,-30.12 4.5,-72.66 41.8,-77.11 24.81,-2.93 47.07,13.2 52.35,57.07 3.9,32.97 -6.37,72.89 -41.14,77.03 -21.76,2.58 -47.46,-10.51 -53.01,-56.99 z m 56.92,65.39 c -45.78,5.43 -82.03,-23.67 -87.31,-68.2 -4.68,-38.83 19.65,-76.92 68.95,-82.78 44.06,-5.23 80.59,22.97 85.74,65.94 4.69,39.73 -16.99,79.03 -67.38,85.04 z m -119.61,-126.37 c -6.76,2.27 -8.91,3.99 -7.15,18.6 3.91,32.34 8.91,64.45 14.38,96.52 1.83,11.49 4.68,14.57 14.45,14.49 l 7.3,-0.11 c 2.35,0.93 2.66,5.11 0.39,6.36 -6.13,0.67 -13.75,1.72 -22.85,3.28 -4.76,0.79 -11.91,2.23 -17.65,3.64 -6.06,-13.71 -15.16,-25.35 -24.53,-38.48 l -27.43,-38.12 c -6.64,-9.38 -10.54,-14.97 -15.04,-20.67 -1.95,5.47 -5.78,17.23 -6.95,21.21 l -15.31,54.1 c -3.63,12.66 -7.15,24.85 -5.86,37.97 -8.13,0.78 -15.74,2.07 -23.24,3.32 -8.01,1.37 -13.87,2.58 -20.32,4.1 -2.07,-0.39 -2.93,-4.45 -1.95,-6.21 l 7.23,-2.5 c 8.2,-2.96 10.62,-7.85 8.98,-18.04 -2.26,-13.21 -6.64,-30.98 -9.96,-45.55 -4.88,-22.34 -7.93,-36.33 -11.72,-49.73 -3.83,-12.97 -5.86,-15.93 -16.52,-15.5 l -3.71,0.19 c -1.45,-0.86 -2.15,-4.96 -0.39,-6.41 8.51,-0.97 16.33,-2.07 23.24,-3.24 8.01,-1.36 14.77,-2.69 22.66,-4.53 1.87,0.63 2.65,4.69 1.29,6.25 l -6.96,2.54 c -8.98,3.28 -8.67,6.6 -6.25,20.9 3.05,17.77 6.76,36.99 9.38,50.12 1.95,9.02 5.27,25.86 7.54,36.4 l 0.39,-0.08 c 1.44,-6.91 5.07,-21.6 7.61,-31.36 l 12.31,-44.89 c 3.12,-11.68 8.79,-34.45 10.55,-46.79 1.36,-1.14 4.57,-1.68 5.66,-0.94 5.55,9.49 20.51,31.72 30.35,45.66 l 25.12,34.96 c 5.55,8.01 9.76,13.95 17.58,24.89 l 0.47,-0.04 -15.04,-88.63 c -2.43,-14.77 -3.32,-16.14 -12.31,-16.18 l -6.05,-0.11 c -2.35,-0.94 -2.15,-5.2 -0.59,-6.37 9.57,-1.17 18.95,-2.5 29.1,-4.26 8.71,-1.44 17.11,-3.08 26.37,-5.12 2.54,0.47 3.52,5 1.48,6.22 z m -560.7,1219.14 c 0,76.65 86.68,235.47 86.68,318.83 0,5.47 -0.55,8.36 -2.11,11.96 36.05,-32.82 61.44,-105.55 35.15,-203.75 104.34,140.62 154.3,232.5 148.67,360.58 56.76,-66.48 65.67,-143.55 65.67,-191.13 0,-94.18 -32.5,-126.21 -126.29,-258.79 -90.31,-127.66 -94.41,-202.3 -94.41,-265.98 0,-8.2 0.31,-14.92 0.74,-21.05 h -16.88 c -57.97,90.58 -97.22,164.84 -97.22,249.33 z m 252.46,-83.12 c -34.07,-51.72 -67.89,-112.62 -89.42,-166.21 H 3215 c -1.41,9.37 -2.19,18.98 -2.19,28.87 0,174.06 144.85,287.11 205.86,405.23 21.06,-92.93 -38.2,-175.31 -99.37,-267.89 z m 121.25,178.83 c 7.77,-19.61 16.48,-45.63 16.48,-78.79 0,-95.2 -40.39,-138.63 -93.01,-209.77 -15.27,-20.66 -28.51,-39.18 -40.43,-56.48 h -55.62 c 7.89,30.27 23.2,69.73 51.25,107.77 82.07,111.49 115.94,205.16 121.33,237.27 z M 1976.8,3607.31 c 0,76.65 86.68,235.47 86.68,318.83 0,5.47 -0.51,8.36 -2.11,11.96 36.05,-32.82 61.44,-105.55 35.15,-203.75 104.34,140.62 154.34,232.5 148.64,360.58 56.79,-66.48 65.7,-143.55 65.7,-191.13 0,-94.18 -32.5,-126.21 -126.29,-258.79 -90.31,-127.66 -94.41,-202.3 -94.41,-265.98 0,-8.2 0.31,-14.92 0.74,-21.05 h -16.88 c -57.97,90.58 -97.22,164.84 -97.22,249.33 z m 252.5,-83.12 c -34.1,-51.72 -67.93,-112.62 -89.46,-166.21 h -14.88 c -1.41,9.37 -2.19,18.98 -2.19,28.87 0,174.06 144.89,287.11 205.9,405.23 21.02,-92.93 -38.24,-175.31 -99.37,-267.89 z m 121.21,178.83 c 7.77,-19.61 16.48,-45.63 16.48,-78.79 0,-95.2 -40.39,-138.63 -93.01,-209.77 -15.31,-20.66 -28.51,-39.18 -40.43,-56.48 h -55.66 c 7.89,30.27 23.28,69.73 51.29,107.77 82.07,111.49 115.98,205.16 121.33,237.27 z m 160.66,-65.78 c 0,85.86 91.92,263.67 91.92,357.11 0,6.09 -0.59,9.33 -2.27,13.36 38.24,-36.72 65.12,-118.21 37.31,-228.21 110.54,157.5 163.55,260.47 157.53,403.87 60.2,-74.45 69.61,-160.74 69.61,-214.1 0,-105.47 -34.41,-141.33 -133.86,-289.85 -95.71,-142.96 -100.08,-226.56 -100.08,-297.89 0,-9.14 0.35,-16.72 0.82,-23.55 h -17.93 c -61.45,101.44 -103.05,184.65 -103.05,279.26 z m 267.66,-93.13 c -36.13,-57.89 -71.99,-126.09 -94.81,-186.13 h -15.82 c -1.44,10.51 -2.3,21.29 -2.3,32.3 0,194.96 153.55,321.57 218.24,453.87 22.34,-104.02 -40.51,-196.29 -105.31,-300.04 z m 128.47,200.31 c 8.29,-21.95 17.47,-51.09 17.47,-88.24 0,-106.6 -42.82,-155.27 -98.56,-234.96 -16.21,-23.12 -30.23,-43.91 -42.85,-63.24 h -58.98 c 8.35,33.94 24.6,78.08 54.33,120.74 86.99,124.84 122.93,229.69 128.59,265.7 z M 2338.01,2654.81 c 109.61,-44.8 252.11,-73.94 362.11,-73.94 110,0 252.5,29.14 362.11,73.94 l 18.36,-338.35 c -109.61,-44.85 -263.4,-74.85 -380.47,-74.85 -117.07,0 -270.86,30 -380.47,74.85 z m 1056.37,350.86 h -298.64 l -34.1,111.25 h 366.72 z m -81.25,-1534.96 h -25.51 l 40.74,1484.38 h 65.23 z m -108.79,1484.38 h 81.32 l -23.04,-1484.38 h -35.32 z m 40.62,-1643.95 -79.22,61.84 9.18,47.15 h 140.16 l 9.18,-47.15 z m -148.55,1643.95 h 65.23 l 40.74,-1484.38 h -25.5 z M 2773.55,1317.67 h -27.1 l 23.67,872.18 c 16.36,1.29 34.88,2.74 51.01,4.77 z m -106.32,870.04 c 11.75,-0.43 21.17,-1.06 32.89,-1.06 11.64,0 20.97,0.7 32.61,1.13 l -13.28,-870.11 h -38.98 z m -88.48,6.95 c 16.09,-2.03 34.69,-3.48 51.02,-4.77 l 23.71,-872.22 h -27.15 z M 2700,1145.17 l -85.7,66.95 9.92,50.86 h 151.48 l 9.89,-50.86 z m -395.66,1860.5 H 2005.7 l -34.06,111.25 h 366.68 z m -81.25,-1534.96 h -25.47 l 40.7,1484.38 h 65.23 z m -108.75,1484.38 h 81.29 l -23.01,-1484.38 h -35.32 z m 40.62,-1643.95 -79.18,61.84 9.1,47.15 h 140.16 l 9.18,-47.15 z m -148.59,1643.95 h 65.35 l 40.7,-1484.38 h -25.54 z m -96.84,212.38 -90.82,139.92 h 449.77 l 90.93,-139.92 z m 589.14,-506.41 c -60.47,14.22 -115.15,32.9 -157.54,51.8 l 15.82,291.95 34.3,112.11 h 0.98 l 12.69,-19.53 h 39.65 l 36.99,-121.09 z m 118.87,-20.43 c -13.13,1.45 -35.04,4.11 -63.52,9.15 l -14.72,272.65 h 70.58 z m 126.37,281.8 -4.34,-285.19 c -13.48,-0.75 -26.13,-1.41 -39.45,-1.41 -13.4,0 -26.17,0.66 -39.73,1.45 l -4.37,285.15 z m 116.68,0 -14.77,-272.69 c -20.66,-3.68 -42.38,-6.84 -63.4,-9.11 l 7.66,281.8 z m -322.07,54.69 -36.72,120.27 h 396.36 l -36.75,-120.27 z m 525,326.13 -98.17,-151.17 h -530.74 l -98.2,151.17 z m -4.69,-590.54 c -42.5,-18.87 -97.19,-37.5 -157.62,-51.72 l 17.15,315.15 37.03,121.25 h 39.65 l 12.69,19.53 h 0.98 l 34.3,-112.03 z m 72.54,594.68 h 449.92 l -90.82,-139.92 H 3040.55 Z M 2699.92,4485.01 C 1714.14,4485.01 915,3685.83 915,2699.89 915,1713.96 1714.14,915.012 2699.92,915.012 c 985.94,0 1785.08,798.948 1785.08,1784.878 0,985.94 -799.14,1785.12 -1785.08,1785.12" /></g></g></svg>